<svg width="64" height="64" viewBox="0 0 64 64" fill="none" xmlns="http://www.w3.org/2000/svg">
  <!-- Eyebrow Mapping Icon - Eyebrow with measurement lines -->
  <path d="M16 24C16 24 20 20 24 22C28 24 32 20 36 22C40 24 44 20 48 22C48 24" stroke="#10B981" stroke-width="2" fill="none"/>
  <!-- Measurement lines -->
  <line x1="20" y1="18" x2="20" y2="26" stroke="#10B981" stroke-width="1"/>
  <line x1="32" y1="18" x2="32" y2="26" stroke="#10B981" stroke-width="1"/>
  <line x1="44" y1="18" x2="44" y2="26" stroke="#10B981" stroke-width="1"/>
  <!-- Ruler -->
  <rect x="16" y="40" width="32" height="4" fill="#10B981"/>
  <rect x="18" y="38" width="2" height="8" fill="#10B981"/>
  <rect x="24" y="38" width="2" height="8" fill="#10B981"/>
  <rect x="30" y="38" width="2" height="8" fill="#10B981"/>
  <rect x="36" y="38" width="2" height="8" fill="#10B981"/>
  <rect x="42" y="38" width="2" height="8" fill="#10B981"/>
</svg>
