<svg width="64" height="64" viewBox="0 0 64 64" fill="none" xmlns="http://www.w3.org/2000/svg">
  <!-- Lash Enhancement Icon - Eye with enhanced lashes -->
  <ellipse cx="32" cy="32" rx="20" ry="12" fill="#F0F9FF" stroke="#0EA5E9" stroke-width="2"/>
  <circle cx="32" cy="32" r="4" fill="#0EA5E9"/>
  <!-- Enhanced lashes -->
  <path d="M16 24C16 20 18 16 20 20" stroke="#0EA5E9" stroke-width="2" fill="none"/>
  <path d="M20 24C20 20 22 16 24 20" stroke="#0EA5E9" stroke-width="2" fill="none"/>
  <path d="M24 24C24 20 26 16 28 20" stroke="#0EA5E9" stroke-width="2" fill="none"/>
  <path d="M28 24C28 20 30 16 32 20" stroke="#0EA5E9" stroke-width="2" fill="none"/>
  <path d="M32 24C32 20 34 16 36 20" stroke="#0EA5E9" stroke-width="2" fill="none"/>
  <path d="M36 24C36 20 38 16 40 20" stroke="#0EA5E9" stroke-width="2" fill="none"/>
  <path d="M40 24C40 20 42 16 44 20" stroke="#0EA5E9" stroke-width="2" fill="none"/>
  <path d="M44 24C44 20 46 16 48 20" stroke="#0EA5E9" stroke-width="2" fill="none"/>
</svg>
